<svg width="33" height="32" viewBox="0 0 33 32" fill="none" xmlns="http://www.w3.org/2000/svg">
<path d="M20.3252 28V17.3333C20.3252 16.9797 20.1847 16.6406 19.9347 16.3905C19.6846 16.1405 19.3455 16 18.9919 16H13.6585C13.3049 16 12.9658 16.1405 12.7157 16.3905C12.4657 16.6406 12.3252 16.9797 12.3252 17.3333V28" stroke="#155DFC" stroke-width="2.66667" stroke-linecap="round" stroke-linejoin="round"/>
<path d="M4.3252 13.3333C4.32511 12.9454 4.40965 12.5622 4.57292 12.2103C4.73619 11.8584 4.97426 11.5464 5.27053 11.296L14.6039 3.296C15.0852 2.88921 15.695 2.66603 16.3252 2.66603C16.9554 2.66603 17.5652 2.88921 18.0465 3.296L27.3799 11.296C27.6761 11.5464 27.9142 11.8584 28.0775 12.2103C28.2408 12.5622 28.3253 12.9454 28.3252 13.3333V25.3333C28.3252 26.0406 28.0442 26.7189 27.5442 27.2189C27.0441 27.719 26.3658 28 25.6585 28H6.99187C6.28462 28 5.60635 27.719 5.10625 27.2189C4.60615 26.7189 4.3252 26.0406 4.3252 25.3333V13.3333Z" stroke="#155DFC" stroke-width="2.66667" stroke-linecap="round" stroke-linejoin="round"/>
</svg>
